<svg width="46" height="46" viewBox="0 0 46 46" fill="none" xmlns="http://www.w3.org/2000/svg">
<g clip-path="url(#clip0)">
<path d="M45.7924 18.1816C45.2398 16.4163 43.7312 15.2756 41.9493 15.2756H30.4583L26.8397 3.82401C26.2834 2.06363 24.778 0.928955 23.0013 0.928955C22.9956 0.928955 22.9898 0.928955 22.9841 0.929049C21.2 0.93635 19.6953 2.08507 19.1506 3.85555L15.6375 15.2756H4.05077C2.26438 15.2756 0.754671 16.4201 0.204723 18.1912C-0.345315 19.9624 0.234817 21.8116 1.68272 22.9022L11.0576 29.9637L7.44909 41.3836C6.89061 43.151 7.46104 45.0028 8.9023 46.1012C9.62616 46.653 10.457 46.929 11.2884 46.929C12.1122 46.9289 12.9365 46.6578 13.6568 46.1152L23.048 39.0416L32.3276 46.1033C33.7672 47.1989 35.6316 47.2042 37.0772 46.1171C38.5228 45.0299 39.1052 43.1844 38.5611 41.4152L35.038 29.9637L44.3333 22.8901C45.7724 21.795 46.3451 19.9468 45.7924 18.1816ZM42.744 20.6221L31.878 28.891L35.9946 42.2725C36.2717 43.1731 35.686 43.6998 35.5 43.8398C35.3139 43.9797 34.6497 44.393 33.9167 43.8351L23.056 35.5701L12.078 43.8392C11.3413 44.394 10.6788 43.976 10.4932 43.8345C10.3077 43.6931 9.72443 43.1617 10.0088 42.2618L14.2339 28.8909L3.26142 20.6262C2.52426 20.0709 2.698 19.2838 2.76878 19.0558C2.83957 18.8279 3.14122 18.084 4.05077 18.084H17.6036L21.717 4.71285C21.9943 3.81146 22.7652 3.73835 22.9949 3.73732H22.9995C23.2349 3.73732 23.9978 3.80931 24.2801 4.70237L28.5085 18.084H41.9494C42.8567 18.084 43.1593 18.8254 43.2305 19.0526C43.3016 19.2799 43.4766 20.0646 42.744 20.6221Z" fill="#3499AF"/>
</g>
<defs>
<clipPath id="clip0">
<rect width="46" height="46" fill="white"/>
</clipPath>
</defs>
</svg>
